<svg width="46" height="41" viewBox="0 0 46 41" fill="none" xmlns="http://www.w3.org/2000/svg">
<path fill-rule="evenodd" clip-rule="evenodd" d="M9 2C9 0.89543 9.89543 0 11 0H35C36.1046 0 37 0.89543 37 2V8H42C44.2091 8 46 9.79086 46 12V35V36H45H36H30.4142L32 37.5858C33.2599 38.8457 32.3676 41 30.5858 41H15.4142C13.6324 41 12.7401 38.8457 14 37.5858L15.5858 36H10H1H0V35V12C0 9.79086 1.79086 8 4 8H9V2ZM9 10H4C2.89543 10 2 10.8954 2 12V34H9V10ZM11 34H18V24C18 22.8954 18.8954 22 20 22H26C27.1046 22 28 22.8954 28 24V34H35V9V2H11V9V34ZM37 34H44V12C44 10.8954 43.1046 10 42 10H37V34ZM18.4142 36L15.4142 39H30.5858L27.5858 36H27H19H18.4142ZM39 14C39 13.4477 39.4477 13 40 13H41C41.5523 13 42 13.4477 42 14C42 14.5523 41.5523 15 41 15H40C39.4477 15 39 14.5523 39 14ZM5 13C4.44772 13 4 13.4477 4 14C4 14.5523 4.44772 15 5 15H6C6.55228 15 7 14.5523 7 14C7 13.4477 6.55228 13 6 13H5ZM39 19C39 18.4477 39.4477 18 40 18H41C41.5523 18 42 18.4477 42 19C42 19.5523 41.5523 20 41 20H40C39.4477 20 39 19.5523 39 19ZM20 34H26V24H20V34ZM5 18C4.44772 18 4 18.4477 4 19C4 19.5523 4.44772 20 5 20H6C6.55228 20 7 19.5523 7 19C7 18.4477 6.55228 18 6 18H5ZM39 24C39 23.4477 39.4477 23 40 23H41C41.5523 23 42 23.4477 42 24C42 24.5523 41.5523 25 41 25H40C39.4477 25 39 24.5523 39 24ZM5 23C4.44772 23 4 23.4477 4 24C4 24.5523 4.44772 25 5 25H6C6.55228 25 7 24.5523 7 24C7 23.4477 6.55228 23 6 23H5ZM39 29C39 28.4477 39.4477 28 40 28H41C41.5523 28 42 28.4477 42 29C42 29.5523 41.5523 30 41 30H40C39.4477 30 39 29.5523 39 29ZM5 28C4.44772 28 4 28.4477 4 29C4 29.5523 4.44772 30 5 30H6C6.55228 30 7 29.5523 7 29C7 28.4477 6.55228 28 6 28H5ZM23 6C19.6863 6 17 8.68629 17 12C17 15.3137 19.6863 18 23 18C26.3137 18 29 15.3137 29 12C29 8.68629 26.3137 6 23 6ZM15 12C15 7.58172 18.5817 4 23 4C27.4183 4 31 7.58172 31 12C31 16.4183 27.4183 20 23 20C18.5817 20 15 16.4183 15 12ZM24 9C24 8.44771 23.5523 8 23 8C22.4477 8 22 8.44771 22 9V11H20C19.4477 11 19 11.4477 19 12C19 12.5523 19.4477 13 20 13H22V15C22 15.5523 22.4477 16 23 16C23.5523 16 24 15.5523 24 15V13H26C26.5523 13 27 12.5523 27 12C27 11.4477 26.5523 11 26 11H24V9Z" fill="#456"/>
</svg>
